<?xml version="1.0" encoding="utf-8"?>
<!-- Generator: Adobe Illustrator 13.0.0, SVG Export Plug-In  -->
<!DOCTYPE svg [
	<!ENTITY ns_flows "http://ns.adobe.com/Flows/1.0/">
]>
<svg version="1.2" baseProfile="tiny"
	 xmlns="http://www.w3.org/2000/svg" xmlns:xlink="http://www.w3.org/1999/xlink" xmlns:a="http://ns.adobe.com/AdobeSVGViewerExtensions/3.0/"
	 x="0px" y="0px" width="380px" height="358px" viewBox="0 0 380 358" xml:space="preserve">
<defs>
</defs>
<path fill="none" stroke="#000000" stroke-width="3.5944" d="M189.57,77.239c-5.394,17.479-96.357,53.205-75.52,106.996
	c-26.164,12.51-44.236,39.223-44.236,70.156c0,42.923,34.795,77.719,77.718,77.719c15.482,0,29.908-4.527,42.025-12.332h0.009
	c12.118,7.805,26.542,12.332,42.025,12.332c42.923,0,77.718-34.796,77.718-77.719c0-30.934-18.072-57.646-44.235-70.156
	C285.912,130.444,194.981,94.972,189.57,77.239z"/>
<path fill="none" stroke="#000000" stroke-width="3.5944" d="M231.592,323.483c-13.309,0-26.225-3.79-37.354-10.958l-4.671-3.007
	l-4.682,3.007c-11.129,7.168-24.046,10.958-37.351,10.958c-38.097,0-69.094-30.994-69.094-69.092
	c0-26.467,15.438-50.95,39.333-62.374l7.208-3.445l-2.886-7.452c-11.122-28.711,16.876-52.168,49.097-75.651
	c7.542-5.498,13.759-10.026,18.339-14.247c4.634,4.304,10.954,8.913,18.642,14.519c32.071,23.391,59.94,46.757,48.854,75.38
	l-2.887,7.451l7.207,3.445c23.896,11.424,39.334,35.908,39.334,62.374C300.684,292.489,269.688,323.483,231.592,323.483
	L231.592,323.483z"/>
<path fill="none" stroke="#000000" stroke-width="2.3963" d="M177.021,61.745c0,4.295-6.434,4.849-8.201-0.586
	c-2.538-7.81,14.059-9.958,14.449,1.367c0.391,11.324-8.201,15.229-16.987,15.229c-8.786,0-23.04-8.981-7.419-23.429
	c-9.763-5.076-5.663-20.501,13.081-24.016c-8.981-9.177,15.971-23.817,17.626-27.553c1.845,3.529,26.605,18.376,17.624,27.553
	c18.744,3.515,22.845,18.94,13.082,24.016c15.621,14.448,1.367,23.429-7.42,23.429c-8.785,0-17.377-3.904-16.986-15.229
	c0.391-11.325,16.986-9.177,14.449-1.367c-1.768,5.435-8.201,4.881-8.201,0.586"/>
<path fill="none" stroke="#000000" stroke-width="2.3963" d="M201.897,62.556c-2.428,2.558-0.192,6.455,0.912,7.459
	c2.385,2.168,5.482,3.428,10.049,3.428c3.638,0,8.55-2.196,9.783-5.344c1.428-3.648-2.705-8.211-5.295-10.605l-4.502-4.164
	l5.44-2.831c2.687-1.397,2.969-3.586,2.733-5.177c-0.609-4.112-5.365-9.039-14.621-10.774c0,0-6.332-1.13-7.933-1.49
	c3.31-1.689,5.493-4.851,5.493-4.851c0.777-0.795,0.624-2.969,0.6-3.444c-0.193-3.777-7.027-9.075-10.908-12.299
	c-1.83-1.523-3.107-2.814-4.087-3.801c-0.98,0.986-2.243,2.278-4.073,3.801c-3.882,3.224-10.716,8.522-10.909,12.299
	c-0.024,0.476-0.179,2.649,0.599,3.444c0,0,2.185,3.162,5.494,4.851c-1.601,0.359-7.933,1.49-7.933,1.49
	c-9.254,1.735-14.01,6.662-14.62,10.774c-0.235,1.591,0.047,3.779,2.733,5.177l5.441,2.831l-4.501,4.164
	c-2.589,2.394-6.723,6.957-5.295,10.605c1.233,3.147,6.146,5.344,9.783,5.344c4.566,0,7.664-1.26,10.049-3.428
	c1.104-1.004,3.339-4.901,0.911-7.459"/>
<path fill="none" stroke="#000000" stroke-width="2.3963" stroke-linecap="round" d="M227.505,67.975
	c1.99,0.72,4.517,5.207,5.237,7.036c0.953,2.426,1.255,5.338,1.804,7.945c0.919,4.362,1.481,10.184,6.765,11.369
	c3.57,0.802,6.289-1.817,6.988-5.191c0.371-1.792-0.035-3.415-0.188-5.152c-0.209-2.378,0.472-3.423,1.797-5.228
	c1.889-2.571,3.712-4.434,5.055-7.466c1.26-2.846,1.432-5.662,1.242-8.869c-0.094-1.553-0.436-2.988-0.367-4.562
	c0.087-2.008,0.943-3.1,1.471-4.838c0.771-2.545,0.553-6.937-1.596-9.264c5.645-0.433,5.457,5.286,6.012,8.767
	c0.717,4.5,1.779,7.622,4.98,10.817c3.768,3.761,6.669,9.563,5.512,15.137c-0.425,2.048-1.438,3.381-1.292,5.644
	c0.185,2.904,1.278,6.038,3.892,7.575c7.931,4.664,15.891,13.972,14.143,23.921c-0.659,3.756-2.083,9.266-6.076,10.643
	c-5.025,1.734-9.357,0.002-13.023-3.09c-4.166-3.513-5.189-9.868-5.189-15.087"/>
<path fill="none" stroke="#000000" stroke-width="2.3963" stroke-linecap="round" d="M268.716,104.402l0.267,3.679
	c0,3.252,0.475,9.106,3.656,11.79c2.538,2.14,4.604,2.773,6.289,2.773c0.969,0,1.812-0.209,2.549-0.463
	c0.485-0.169,2.16-1.193,3.231-7.312c1.353-7.693-5.313-15.479-12.077-19.456c-3.506-2.064-5.697-6.079-6.011-11.021
	c-0.149-2.33,0.472-4.075,0.924-5.351c0.192-0.534,0.356-0.997,0.449-1.448c0.872-4.204-1.79-8.663-4.336-11.205
	c-1.296-1.293-1.563-2.464-3.13-3.943c0.166,3.102,0.074,6.758-1.623,10.584c-1.208,2.739-2.708,4.65-4.157,6.497
	c-0.444,0.569-0.903,1.151-1.365,1.777c-1.05,1.436-1.047,1.451-0.975,2.301c0.034,0.381,0.622,1.656,0.67,2.03
	c0.183,1.438-0.132,2.326-0.554,4.364c-0.635,3.068-2.377,5.712-4.779,7.26c-1.555,1.003-3.338,1.519-5.176,1.519
	c-0.729,0-1.467-0.081-2.2-0.245c-7.492-1.683-8.923-8.997-9.776-13.366c-0.091-0.451-0.175-0.895-0.268-1.324
	c-0.167-0.799-0.312-1.625-0.461-2.457c-0.316-1.789-0.615-3.476-1.137-4.797c-0.623-1.587-2.301-4.194-3.041-4.728
	c0,0,0.121,0.085,0.35,0.17"/>
<path fill="none" stroke="#000000" stroke-width="2.3963" stroke-linecap="round" d="M286.378,123.164
	c6.438,3.864,1.394,19.8,1.329,21.995c-0.225,7.625,3.557,12.736,8.422,15.168c4.047,2.023,10.199,1.155,11.406-1.84
	c1.307-3.247-1.037-8.592-1.473-11.59c-0.713-4.92,0.543-8.486,2.989-12.743c2.044-3.559,5.472-6.222,7.477-9.803
	c2.539-4.534,2.433-9.248,1.86-14.25c4.047,3.127,8.279,16.558,8.831,23.365c0.314,3.868-1.217,9.181-1.654,10.854
	c-0.729,2.772-2.541,6.13-2.503,9.001c0.109,8.108,10.148,17.17,11.562,22.646c0.425,1.647,0.699,3.602,0.883,5.356
	c0.729,6.967-3.872,14.141-13.413,14.693c-5.874,0.339-9.576-2.84-11.072-8.383c-1.125-4.172,0.929-9.462,4.608-9.832"/>
<path fill="none" stroke="#000000" stroke-width="2.3963" stroke-linecap="round" d="M316.059,182.095
	c-0.479,0.268-1.411,2.411-0.871,4.419c1.196,4.438,3.738,5.218,6.005,5.218c0.222,0,0.439-0.008,0.654-0.021
	c3.17-0.183,5.727-1.316,7.394-3.276c1.512-1.78,2.235-4.209,1.978-6.663c-0.205-1.955-0.466-3.547-0.768-4.723
	c-0.366-1.422-2.279-4.146-3.967-6.55c-3.585-5.112-7.647-10.902-7.732-17.119c-0.037-2.688,0.916-5.268,1.758-7.543
	c0.355-0.958,0.688-1.862,0.883-2.608l0.121-0.443c0.447-1.675,1.644-6.126,1.412-8.97c-0.213-2.619-0.927-5.806-1.857-8.881
	c-0.232,0.51-0.489,1.018-0.773,1.525c-1.236,2.205-2.789,3.982-4.294,5.703c-1.239,1.415-2.408,2.754-3.204,4.139
	c-2.336,4.061-2.956,6.577-2.464,9.977c0.09,0.621,0.354,1.592,0.628,2.619c0.909,3.37,2.041,7.565,0.576,11.201
	c-0.855,2.133-2.656,3.768-5.202,4.734c-1.612,0.612-3.414,0.913-5.232,0.913c-2.402,0-4.834-0.526-6.896-1.559
	c-7.018-3.507-11.055-10.667-10.805-19.155c0.021-0.798,0.223-1.747,0.549-3.319c2.521-12.002,0.986-14.383,0.212-14.849"/>
<path fill="none" stroke="#000000" stroke-width="2.3963" stroke-linecap="round" d="M326.732,195.131
	c-1.275,3.484,0.492,9.936,2.728,12.787c2.181,2.779,6.38,4.082,10.009,1.103c3.38-2.774,2.64-8.147,4.121-10.926
	c4.76-8.923,12.411-7.226,15.562-14.449c1.286-2.953,2.036-10.93,1.111-14.634c3.333,2.964,6.549,8.601,7.039,10.744
	c2.037,8.891-6.002,18.791-7.4,21.447c-1.888,3.586-3.154,5.42-2.982,9.713c0.193,4.821,1.947,7.383,4.085,11.445
	c1.854,3.52,0.722,9.586-0.74,12.227c-3.039,5.484-11.33,7.119-17.414,6.109c-3.676-0.609-7.779-2.779-9.271-6.975
	c-1.585-4.459-1.268-9.395,2.787-12.102c2.447-1.639,5.369-1.942,7.274,0.561c1.3,1.703,1.537,3.408,0.69,4.996"/>
<path fill="none" stroke="#000000" stroke-width="2.3963" stroke-linecap="round" d="M340.525,225.149
	c-0.01,0.027-0.019,0.126-0.006,0.178c-0.002,0-0.042-0.18-0.311-0.533c-0.091-0.115-0.143-0.152-0.143-0.152
	c-0.035,0.007-0.541,0.055-1.309,0.566c-2.646,1.769-1.662,5.533-1.117,7.07c0.888,2.495,3.635,3.785,5.91,4.165
	c0.896,0.147,1.845,0.224,2.812,0.224c4.146,0,8.575-1.373,10.125-4.166c0.959-1.735,1.684-6.256,0.694-8.131
	c-0.274-0.523-0.545-1.022-0.806-1.506c-1.831-3.391-3.562-6.597-3.771-11.775c-0.202-5.019,1.245-7.728,2.924-10.858l0.551-1.034
	c0.332-0.629,0.807-1.359,1.409-2.285c1.604-2.469,5.932-6.758,5.46-11.197c-2.132,4.592-5.711,6.557-8.604,8.141
	c-2.734,1.496-5.097,2.791-6.952,6.271c-0.224,0.422-0.439,1.629-0.61,2.603c-0.516,2.896-1.216,6.864-4.578,9.628
	c-2.132,1.75-4.659,2.68-7.227,2.68c-0.385,0-0.771-0.021-1.156-0.063c-3.004-0.33-5.832-1.933-7.758-4.392
	c-3.089-3.938-5.824-9.492-3.971-14.561"/>
<path fill="none" stroke="#000000" stroke-width="2.3963" stroke-linecap="round" d="M342.847,240.698
	c0.557,16.115-14.215,22.639-16.484,29.076c-2.226,6.305,1.153,12.37,7.883,10.248c5.271-1.665,7.569-9.32,12.308-12.279
	c4.446-2.777,14.403-3.367,17.042-4.076c5.8-1.554,11.115-5.74,14.266-12.039c0.739,2.778,0.657,9.785,0,11.67
	c-1.297,3.705-4.632,4.918-5.929,7.039c-2.097,3.431-3.208,7.574-7.039,9.817c-2.732,1.603-5.977,0.32-8.337,2.593
	c-5.002,4.817-2.593,17.784-7.409,23.155c-5.875,6.552-15.844,6.422-20.007,2.409c-2.932-2.825-6.669-11.115,1.297-15.375"/>
<path fill="none" stroke="#000000" stroke-width="2.3963" stroke-linecap="round" d="M332.469,296.741
	c-1.996,1.065-2.361,2.188-2.469,2.938c-0.276,1.998,1.059,4.496,2.132,5.529c1.022,0.985,3.021,1.596,5.166,1.596
	c0.136,0,0.271-0.004,0.408-0.008c3.184-0.117,6.183-1.49,8.227-3.771c1.491-1.665,2.05-5.712,2.545-9.288
	c0.722-5.216,1.472-10.615,5.085-14.097c2.372-2.283,5.179-2.583,7.033-2.78c0.909-0.096,1.697-0.182,2.117-0.429
	c1.624-0.949,2.511-2.587,3.823-5.179c0.521-1.03,1.062-2.098,1.712-3.166c0.673-1.096,1.807-0.367,2.368-2.682
	c-1.858,1.055-3.839,1.874-5.905,2.428c-0.993,0.267-2.335,0.461-4.195,0.729c-3.463,0.497-9.258,1.326-11.679,2.841
	c-1.39,0.866-2.723,2.707-4.136,4.655c-2.283,3.152-4.868,6.725-9.16,8.078c-1.339,0.424-2.654,0.632-3.913,0.632
	c-2.781,0-5.288-1.017-7.181-2.976c-3.118-3.224-3.943-8.379-2.153-13.453c1.079-3.061,3.548-5.541,6.41-8.414
	c4.751-4.777,10.136-10.193,9.829-19.075"/>
<path fill="none" stroke="#000000" stroke-width="2.3963" stroke-linecap="round" d="M331.612,310.413
	c3.062,15.141-14.328,11.975-21.924,14.938c-2.846,1.11-8.449,14.078-20.746,8.335c-6.658-3.107-19.246-0.186-25.379,4.261
	c-3.812,2.763-0.977,7.056,4.615,6.118c2.124-0.354,17.568-1.41,20.053-1.251c4.972,0.319,18.655,5.498,24.216,8.468
	c0,0,10.194,3.303,17.809,0.497"/>
<path fill="none" stroke="#000000" stroke-width="2.3963" stroke-linecap="round" d="M338.802,352.631
	c-0.095,0.018-6.304,4.803-15.246,4.656l0,0c-4.791,0-9.93-0.486-13.143-2.201c-5.479-2.928-18.483-7.715-22.459-7.971
	c-0.126-0.008-0.3-0.012-0.513-0.012c-3.317,0-16.691,0.902-18.555,1.213c-0.757,0.127-1.5,0.188-2.221,0.188
	c-3.979,0-7.307-1.873-8.621-5.021c-1.341-3.2-0.172-6.745,2.982-9.032c5.107-3.699,13.558-6.341,20.957-6.341
	c3.254,0,6.305,0.511,8.779,1.666c1.555,0.728,2.926,1.052,4.172,1.052c3.444,0,5.943-2.476,8.816-5.771
	c1.494-1.715,2.673-3.067,4.363-3.729c2.593-1.011,5.646-1.297,8.88-1.604c3.827-0.36,8.592-0.812,9.869-2.653
	c0.683-0.984,2.873-6.146,0.32-11.251"/>
<path fill="none" stroke="#000000" stroke-width="2.3963" stroke-linecap="round" d="M211.879,340.36
	c-0.557-3.34-3.705-5.748-7.626-5.945c-3.008-0.151-6.78,2.366-8.269,4.834c-2.164,3.594-1.76,9.657,0.52,12.592
	c2.96,3.811,11.725,6.219,16.121,3.572c1.264-0.761,2.107-2.297,3.361-2.97c3.134-1.683,5.722,2.494,8.308,3.478
	c3.213,1.218,7.925,1.566,10.897-0.262c1.91-1.176,3.883-3.156,6.156-4.103c5.952-2.478,12.775,0.877,18.172,3.155
	c2.9,1.224,7.125,2.105,10.268,1.172c2.188-0.65,11.132-3.801,15.896-3.971c2.726-0.099,13.776,0.17,25.003,3.571"/>
<path fill="none" stroke="#000000" stroke-width="2.3963" stroke-linecap="round" d="M207.625,341.065
	c-0.21-1.264-1.72-2.249-3.59-2.344c-0.021-0.001-0.043-0.002-0.065-0.002c-1.119,0-3.441,1.353-4.287,2.754
	c-1.272,2.113-0.945,6.206,0.229,7.718c1.334,1.72,5.261,3.021,8.099,3.021c0.977,0,1.822-0.152,2.393-0.496
	c0.123-0.088,0.475-0.465,0.707-0.713c0.697-0.748,1.565-1.674,2.836-2.356c1.24-0.667,2.426-0.933,3.531-0.933
	c2.976,0,5.39,1.92,6.871,3.101c0.479,0.38,1.203,0.955,1.489,1.079c1.279,0.484,2.753,0.729,4.077,0.729
	c1.229,0,2.327-0.211,3.02-0.638c0.529-0.325,1.159-0.806,1.824-1.313c1.404-1.074,3.908-3.394,5.848-4.2
	c2.055-0.853,4.234-1.188,6.295-1.188c5.132,0,7.824,1.7,10.717,4.081"/>
<path fill="none" stroke="#000000" stroke-width="2.3963" stroke-linecap="round" d="M152.078,67.975
	c-1.99,0.72-4.516,5.207-5.237,7.036c-0.955,2.426-1.256,5.338-1.804,7.945c-0.919,4.362-1.481,10.184-6.763,11.369
	c-3.572,0.802-6.291-1.817-6.99-5.191c-0.371-1.792,0.035-3.415,0.188-5.152c0.208-2.378-0.472-3.423-1.796-5.228
	c-1.889-2.571-3.713-4.434-5.055-7.466c-1.259-2.846-1.432-5.662-1.243-8.869c0.092-1.553,0.435-2.988,0.367-4.562
	c-0.086-2.008-0.943-3.1-1.47-4.838c-0.771-2.545-0.553-6.937,1.595-9.264c-5.645-0.433-5.458,5.286-6.012,8.767
	c-0.716,4.5-1.779,7.622-4.981,10.817c-3.768,3.761-6.668,9.563-5.511,15.137c0.425,2.048,1.437,3.381,1.292,5.644
	c-0.185,2.904-1.279,6.038-3.892,7.575c-7.929,4.664-15.889,13.972-14.141,23.921c0.659,3.756,2.083,9.266,6.076,10.643
	c5.025,1.734,9.357,0.002,13.024-3.09c4.167-3.513,5.189-9.868,5.189-15.087"/>
<path fill="none" stroke="#000000" stroke-width="2.3963" stroke-linecap="round" d="M110.867,104.402l-0.267,3.679
	c0,3.252-0.474,9.106-3.656,11.79c-2.538,2.14-4.603,2.773-6.289,2.773c-0.969,0-1.812-0.209-2.547-0.463
	c-0.487-0.169-2.161-1.193-3.233-7.312c-1.353-7.693,5.313-15.479,12.078-19.456c3.505-2.064,5.697-6.079,6.01-11.021
	c0.15-2.33-0.471-4.075-0.924-5.351c-0.192-0.534-0.357-0.997-0.449-1.448c-0.872-4.204,1.79-8.663,4.336-11.205
	c1.296-1.293,1.564-2.464,3.13-3.943c-0.167,3.102-0.074,6.758,1.623,10.584c1.209,2.739,2.709,4.65,4.158,6.497
	c0.445,0.569,0.904,1.151,1.365,1.777c1.049,1.436,1.047,1.451,0.975,2.301c-0.035,0.381-0.623,1.656-0.67,2.03
	c-0.181,1.438,0.132,2.326,0.553,4.364c0.636,3.068,2.378,5.712,4.78,7.26c1.554,1.003,3.338,1.519,5.177,1.519
	c0.728,0,1.466-0.081,2.2-0.245c7.492-1.683,8.923-8.997,9.777-13.366c0.09-0.451,0.174-0.895,0.267-1.324
	c0.167-0.799,0.314-1.625,0.461-2.457c0.317-1.789,0.615-3.476,1.136-4.797c0.624-1.587,2.3-4.194,3.041-4.728
	c0,0-0.121,0.085-0.349,0.17"/>
<path fill="none" stroke="#000000" stroke-width="2.3963" stroke-linecap="round" d="M93.205,123.164
	c-6.438,3.864-1.394,19.8-1.329,21.995c0.225,7.625-3.556,12.736-8.422,15.168c-4.047,2.023-10.2,1.155-11.406-1.84
	c-1.307-3.247,1.037-8.592,1.472-11.59c0.714-4.92-0.543-8.486-2.989-12.743c-2.044-3.559-5.471-6.222-7.476-9.803
	c-2.539-4.534-2.433-9.248-1.862-14.25c-4.047,3.127-8.279,16.558-8.832,23.365c-0.313,3.868,1.217,9.181,1.656,10.854
	c0.728,2.772,2.542,6.13,2.502,9.001c-0.11,8.108-10.149,17.17-11.562,22.646c-0.425,1.647-0.698,3.602-0.882,5.356
	c-0.728,6.967,3.872,14.141,13.413,14.693c5.875,0.339,9.577-2.84,11.074-8.383c1.125-4.172-0.929-9.462-4.609-9.832"/>
<path fill="none" stroke="#000000" stroke-width="2.3963" stroke-linecap="round" d="M63.523,182.095
	c0.481,0.268,1.412,2.411,0.872,4.419c-1.197,4.438-3.738,5.218-6.005,5.218c-0.221,0-0.44-0.008-0.655-0.021
	c-3.169-0.183-5.725-1.316-7.393-3.276c-1.512-1.78-2.236-4.209-1.977-6.663c0.205-1.955,0.465-3.547,0.768-4.723
	c0.366-1.422,2.279-4.146,3.966-6.55c3.585-5.112,7.647-10.902,7.733-17.119c0.038-2.688-0.916-5.268-1.757-7.543
	c-0.356-0.958-0.688-1.862-0.883-2.608l-0.121-0.443c-0.448-1.675-1.643-6.126-1.412-8.97c0.213-2.619,0.926-5.806,1.858-8.881
	c0.233,0.51,0.489,1.018,0.773,1.525c1.237,2.205,2.79,3.982,4.294,5.703c1.239,1.415,2.408,2.754,3.204,4.139
	c2.337,4.061,2.957,6.577,2.464,9.977c-0.09,0.621-0.354,1.592-0.628,2.619c-0.909,3.37-2.041,7.565-0.576,11.201
	c0.855,2.133,2.656,3.768,5.202,4.734c1.612,0.612,3.414,0.913,5.232,0.913c2.403,0,4.835-0.526,6.897-1.559
	c7.017-3.507,11.055-10.667,10.805-19.155c-0.022-0.798-0.222-1.747-0.55-3.319c-2.521-12.002-0.986-14.383-0.211-14.849"/>
<path fill="none" stroke="#000000" stroke-width="2.3963" stroke-linecap="round" d="M52.852,195.131
	c1.275,3.484-0.493,9.936-2.728,12.787c-2.18,2.779-6.379,4.082-10.009,1.103c-3.379-2.774-2.638-8.147-4.121-10.926
	c-4.76-8.923-12.411-7.226-15.561-14.449c-1.287-2.953-2.037-10.93-1.111-14.634c-3.333,2.964-6.549,8.601-7.039,10.744
	c-2.037,8.891,6.001,18.791,7.4,21.447c1.888,3.586,3.155,5.42,2.982,9.713c-0.193,4.821-1.947,7.383-4.084,11.445
	c-1.852,3.52-0.722,9.586,0.741,12.227c3.039,5.484,11.33,7.119,17.414,6.109c3.675-0.609,7.78-2.779,9.271-6.975
	c1.584-4.459,1.266-9.395-2.787-12.102c-2.449-1.639-5.37-1.942-7.275,0.561c-1.299,1.703-1.538,3.408-0.69,4.996"/>
<path fill="none" stroke="#000000" stroke-width="2.3963" stroke-linecap="round" d="M39.059,225.149
	c0.009,0.027,0.017,0.126,0.004,0.178c0.002,0,0.042-0.18,0.312-0.533c0.09-0.115,0.143-0.152,0.143-0.152
	c0.035,0.007,0.541,0.055,1.307,0.566c2.646,1.769,1.663,5.533,1.117,7.07c-0.887,2.495-3.634,3.785-5.91,4.165
	c-0.895,0.147-1.845,0.224-2.812,0.224c-4.146,0-8.577-1.373-10.125-4.166c-0.959-1.735-1.684-6.256-0.696-8.131
	c0.276-0.523,0.545-1.022,0.806-1.506c1.831-3.391,3.562-6.597,3.771-11.775c0.203-5.019-1.246-7.728-2.924-10.858l-0.55-1.034
	c-0.333-0.629-0.808-1.359-1.41-2.285c-1.604-2.469-5.931-6.758-5.459-11.197c2.132,4.592,5.711,6.557,8.603,8.141
	c2.735,1.496,5.097,2.791,6.952,6.271c0.224,0.422,0.44,1.629,0.611,2.603c0.515,2.896,1.216,6.864,4.579,9.628
	c2.132,1.75,4.659,2.68,7.225,2.68c0.385,0,0.771-0.021,1.157-0.063c3.005-0.33,5.833-1.933,7.759-4.392
	c3.088-3.938,5.823-9.492,3.969-14.561"/>
<path fill="none" stroke="#000000" stroke-width="2.3963" stroke-linecap="round" d="M36.735,240.698
	c-0.556,16.115,14.214,22.639,16.485,29.076c2.225,6.305-1.155,12.37-7.883,10.248c-5.272-1.665-7.569-9.32-12.308-12.279
	c-4.446-2.777-14.404-3.367-17.042-4.076c-5.8-1.554-11.116-5.74-14.264-12.039c-0.741,2.778-0.659,9.785,0,11.67
	c1.296,3.705,4.631,4.918,5.927,7.039c2.097,3.431,3.208,7.574,7.039,9.817c2.733,1.603,5.977,0.32,8.337,2.593
	c5.002,4.817,2.593,17.784,7.41,23.155c5.875,6.552,15.842,6.422,20.005,2.409c2.933-2.825,6.669-11.115-1.296-15.375"/>
<path fill="none" stroke="#000000" stroke-width="2.3963" stroke-linecap="round" d="M47.113,296.741
	c1.996,1.065,2.362,2.188,2.469,2.938c0.276,1.998-1.059,4.496-2.132,5.529c-1.023,0.985-3.02,1.596-5.166,1.596
	c-0.136,0-0.271-0.004-0.408-0.008c-3.184-0.117-6.183-1.49-8.227-3.771c-1.49-1.665-2.048-5.712-2.544-9.288
	c-0.721-5.216-1.471-10.615-5.085-14.097c-2.372-2.283-5.177-2.583-7.033-2.78c-0.909-0.096-1.697-0.182-2.117-0.429
	c-1.624-0.949-2.511-2.587-3.824-5.179c-0.521-1.03-1.061-2.098-1.712-3.166c-0.673-1.096-1.807-0.367-2.368-2.682
	c1.859,1.055,3.839,1.874,5.905,2.428c0.994,0.267,2.335,0.461,4.196,0.729c3.462,0.497,9.258,1.326,11.679,2.841
	c1.39,0.866,2.723,2.707,4.136,4.655c2.283,3.152,4.867,6.725,9.159,8.078c1.34,0.424,2.655,0.632,3.914,0.632
	c2.781,0,5.287-1.017,7.181-2.976c3.118-3.224,3.943-8.379,2.153-13.453c-1.079-3.061-3.548-5.541-6.41-8.414
	c-4.751-4.777-10.136-10.193-9.83-19.075"/>
<path fill="none" stroke="#000000" stroke-width="2.3963" stroke-linecap="round" d="M47.972,310.413
	c-3.062,15.141,14.328,11.975,21.922,14.938c2.846,1.11,8.451,14.078,20.748,8.335c6.658-3.107,19.245-0.186,25.378,4.261
	c3.811,2.763,0.976,7.056-4.616,6.118c-2.125-0.354-17.569-1.41-20.053-1.251c-4.972,0.319-18.655,5.498-24.216,8.468
	c0,0-10.195,3.303-17.808,0.497"/>
<path fill="none" stroke="#000000" stroke-width="2.3963" stroke-linecap="round" d="M52.395,305.821
	c-2.552,5.104-0.361,10.266,0.321,11.252c1.278,1.842,6.042,2.293,9.87,2.652c3.233,0.309,6.287,0.595,8.879,1.605
	c1.691,0.662,2.869,2.015,4.363,3.729c2.874,3.295,5.373,5.77,8.818,5.77c1.246,0,2.616-0.324,4.171-1.051
	c2.476-1.156,5.526-1.666,8.78-1.666c7.399,0,15.849,2.641,20.957,6.34c3.155,2.289,4.323,5.834,2.982,9.033
	c-1.315,3.146-4.642,5.021-8.621,5.021c-0.721,0-1.463-0.062-2.221-0.188c-1.863-0.31-15.236-1.213-18.554-1.213
	c-0.214,0-0.387,0.004-0.512,0.013c-3.976,0.256-16.979,5.041-22.459,7.969c-3.213,1.716-8.352,2.201-13.142,2.201l0,0
	c-8.943,0.146-15.151-4.639-15.246-4.656"/>
<path fill="none" stroke="#000000" stroke-width="2.3963" stroke-linecap="round" d="M167.704,340.36
	c0.556-3.34,3.705-5.748,7.625-5.945c3.008-0.151,6.78,2.366,8.268,4.834c2.165,3.594,1.76,9.657-0.519,12.592
	c-2.96,3.811-11.725,6.219-16.121,3.572c-1.263-0.761-2.107-2.297-3.361-2.97c-3.134-1.683-5.722,2.494-8.308,3.478
	c-3.213,1.218-7.925,1.566-10.898-0.262c-1.91-1.176-3.882-3.156-6.157-4.103c-5.952-2.478-12.774,0.877-18.171,3.155
	c-2.9,1.224-7.125,2.105-10.267,1.172c-2.187-0.65-11.132-3.801-15.896-3.971c-2.725-0.099-13.777,0.17-25.004,3.571"/>
<path fill="none" stroke="#000000" stroke-width="2.3963" stroke-linecap="round" d="M171.958,341.065
	c0.209-1.264,1.719-2.249,3.59-2.344c0.021-0.001,0.043-0.002,0.065-0.002c1.119,0,3.442,1.353,4.287,2.754
	c1.273,2.113,0.945,6.206-0.229,7.718c-1.334,1.72-5.261,3.021-8.1,3.021c-0.976,0-1.822-0.152-2.392-0.496
	c-0.123-0.088-0.474-0.465-0.708-0.713c-0.696-0.748-1.566-1.674-2.836-2.356c-1.24-0.667-2.424-0.933-3.53-0.933
	c-2.975,0-5.389,1.92-6.872,3.101c-0.479,0.38-1.203,0.955-1.489,1.079c-1.279,0.484-2.753,0.729-4.077,0.729
	c-1.229,0-2.327-0.211-3.02-0.638c-0.529-0.325-1.16-0.806-1.824-1.313c-1.404-1.074-3.908-3.394-5.848-4.2
	c-2.054-0.853-4.235-1.188-6.294-1.188c-5.132,0-7.824,1.7-10.717,4.081"/>
<circle fill="none" stroke="#000000" stroke-width="3" stroke-linecap="round" cx="138.229" cy="259.925" r="47.094"/>
<circle fill="none" stroke="#000000" stroke-width="3" stroke-linecap="round" cx="240.727" cy="259.925" r="47.094"/>
<circle fill="none" stroke="#000000" stroke-width="3" stroke-linecap="round" cx="188.467" cy="167.179" r="47.094"/>
</svg>
