<?xml version="1.0" encoding="UTF-8" standalone="no"?>
<!-- Created with Inkscape (http://www.inkscape.org/) -->
<svg
   xmlns:dc="http://purl.org/dc/elements/1.1/"
   xmlns:cc="http://web.resource.org/cc/"
   xmlns:rdf="http://www.w3.org/1999/02/22-rdf-syntax-ns#"
   xmlns:svg="http://www.w3.org/2000/svg"
   xmlns="http://www.w3.org/2000/svg"
   xmlns:sodipodi="http://sodipodi.sourceforge.net/DTD/sodipodi-0.dtd"
   xmlns:inkscape="http://www.inkscape.org/namespaces/inkscape"
   width="64px"
   height="64px"
   id="svg2175"
   sodipodi:version="0.32"
   inkscape:version="0.44.1"
   sodipodi:docbase="/project/terry/Image/Art/Original/SVG"
   sodipodi:docname="fd_sq_icon_add.svg">
  <defs
     id="defs2177">
    <clipPath
       clipPathUnits="userSpaceOnUse"
       id="clipPath8457">
      <path
         sodipodi:type="arc"
         style="opacity:1;color:black;fill:black;fill-opacity:0.52193992;fill-rule:evenodd;stroke:none;stroke-width:4;stroke-linecap:round;stroke-linejoin:miter;marker:none;marker-start:none;marker-mid:none;marker-end:none;stroke-miterlimit:4;stroke-dasharray:none;stroke-dashoffset:0;stroke-opacity:1;visibility:visible;display:block"
         id="path8452"
         sodipodi:cx="85"
         sodipodi:cy="23"
         sodipodi:rx="5"
         sodipodi:ry="5"
         d="M 90 23 A 5 5 0 1 1  80,23 A 5 5 0 1 1  90 23 z"
         transform="translate(-1,1)" />
    </clipPath>
    <clipPath
       clipPathUnits="userSpaceOnUse"
       id="clipPath8475">
      <path
         sodipodi:type="arc"
         style="opacity:1;color:black;fill:white;fill-opacity:1;fill-rule:evenodd;stroke:none;stroke-width:4;stroke-linecap:round;stroke-linejoin:miter;marker:none;marker-start:none;marker-mid:none;marker-end:none;stroke-miterlimit:4;stroke-dasharray:none;stroke-dashoffset:0;stroke-opacity:1;visibility:visible;display:block"
         id="path8472"
         sodipodi:cx="84"
         sodipodi:cy="48"
         sodipodi:rx="4"
         sodipodi:ry="4"
         d="M 88 48 A 4 4 0 1 1  80,48 A 4 4 0 1 1  88 48 z"
         transform="translate(4,4)" />
    </clipPath>
  </defs>
  <sodipodi:namedview
     id="base"
     pagecolor="#ffffff"
     bordercolor="#666666"
     borderopacity="1.0"
     inkscape:pageopacity="0.0"
     inkscape:pageshadow="2"
     inkscape:zoom="5.90625"
     inkscape:cx="32"
     inkscape:cy="32"
     inkscape:current-layer="layer1"
     showgrid="true"
     inkscape:document-units="px"
     inkscape:grid-bbox="true"
     gridspacingx="1px"
     gridspacingy="1px"
     gridtolerance="10000"
     inkscape:grid-points="true"
     gridempspacing="2"
     inkscape:object-bbox="false"
     inkscape:object-points="false"
     inkscape:object-paths="false"
     inkscape:window-width="852"
     inkscape:window-height="609"
     inkscape:window-x="59"
     inkscape:window-y="17" />
  <metadata
     id="metadata2180">
    <rdf:RDF>
      <cc:Work
         rdf:about="">
        <dc:format>image/svg+xml</dc:format>
        <dc:type
           rdf:resource="http://purl.org/dc/dcmitype/StillImage" />
      </cc:Work>
    </rdf:RDF>
  </metadata>
  <g
     id="layer1"
     inkscape:label="Layer 1"
     inkscape:groupmode="layer">
    <g
       id="g8484">
      <path
         id="rect3738"
         d="M 12.219758,1.521875e-05 C 5.4409057,1.521875e-05 3.434375e-05,5.4620633 3.434375e-05,12.240917 L 3.434375e-05,51.780302 C 3.434375e-05,58.559156 5.4409071,64.000032 12.219758,64.000026 L 51.759143,64.000026 C 58.537997,64.000026 64.000045,58.559149 64.000045,51.780302 L 64.000045,12.240917 C 64.000045,5.4620646 58.537997,1.521875e-05 51.759143,1.521875e-05 L 12.219758,1.521875e-05 z M 14.803478,8.4712277 L 49.175423,8.4712277 C 52.69038,8.4712277 55.528832,10.901158 55.528832,13.913982 L 55.528832,50.107237 C 55.528832,53.120061 52.690386,55.528813 49.175423,55.528813 L 14.803478,55.528813 C 11.288519,55.52882 8.4712468,53.120061 8.4712468,50.107237 L 8.4712468,13.913982 C 8.4712468,10.901158 11.288518,8.4712277 14.803478,8.4712277 z "
         style="color:black;fill:black;fill-opacity:1;fill-rule:evenodd;stroke:none;stroke-width:10;stroke-linecap:butt;stroke-linejoin:miter;marker:none;marker-start:none;marker-mid:none;marker-end:none;stroke-miterlimit:4;stroke-dasharray:none;stroke-dashoffset:0;stroke-opacity:1;visibility:visible;display:block;font-size:6" />
      <path
         id="text8479"
         d="M 52,35.455882 L 35.550724,35.455882 L 35.550724,52 L 28.594203,52 L 28.594203,35.455882 L 12,35.455882 L 12,28.397059 L 28.594203,28.397059 L 28.594203,12 L 35.550724,12 L 35.550724,28.397059 L 52,28.397059 L 52,35.455882"
         style="font-size:6px;font-style:normal;font-variant:normal;font-weight:bold;font-stretch:normal;text-align:center;line-height:100%;writing-mode:lr-tb;text-anchor:middle;fill:black;fill-opacity:1;stroke:none;stroke-width:1pt;stroke-linecap:butt;stroke-linejoin:miter;stroke-opacity:1;font-family:FreeSerif" />
    </g>
  </g>
</svg>
