<?xml version="1.0" encoding="UTF-8" standalone="no"?>
<!-- Created with Inkscape (http://www.inkscape.org/) -->
<svg
   xmlns:dc="http://purl.org/dc/elements/1.1/"
   xmlns:cc="http://web.resource.org/cc/"
   xmlns:rdf="http://www.w3.org/1999/02/22-rdf-syntax-ns#"
   xmlns:svg="http://www.w3.org/2000/svg"
   xmlns="http://www.w3.org/2000/svg"
   xmlns:sodipodi="http://sodipodi.sourceforge.net/DTD/sodipodi-0.dtd"
   xmlns:inkscape="http://www.inkscape.org/namespaces/inkscape"
   width="64px"
   height="64px"
   id="svg2175"
   sodipodi:version="0.32"
   inkscape:version="0.44.1"
   sodipodi:docbase="/project/terry/Image/Art/Original/SVG"
   sodipodi:docname="fd_sq_icon_study.svg">
  <defs
     id="defs2177">
    <clipPath
       clipPathUnits="userSpaceOnUse"
       id="clipPath8457">
      <path
         sodipodi:type="arc"
         style="opacity:1;color:black;fill:black;fill-opacity:0.52193992;fill-rule:evenodd;stroke:none;stroke-width:4;stroke-linecap:round;stroke-linejoin:miter;marker:none;marker-start:none;marker-mid:none;marker-end:none;stroke-miterlimit:4;stroke-dasharray:none;stroke-dashoffset:0;stroke-opacity:1;visibility:visible;display:block"
         id="path8452"
         sodipodi:cx="85"
         sodipodi:cy="23"
         sodipodi:rx="5"
         sodipodi:ry="5"
         d="M 90 23 A 5 5 0 1 1  80,23 A 5 5 0 1 1  90 23 z"
         transform="translate(-1,1)" />
    </clipPath>
    <clipPath
       clipPathUnits="userSpaceOnUse"
       id="clipPath8475">
      <path
         sodipodi:type="arc"
         style="opacity:1;color:black;fill:white;fill-opacity:1;fill-rule:evenodd;stroke:none;stroke-width:4;stroke-linecap:round;stroke-linejoin:miter;marker:none;marker-start:none;marker-mid:none;marker-end:none;stroke-miterlimit:4;stroke-dasharray:none;stroke-dashoffset:0;stroke-opacity:1;visibility:visible;display:block"
         id="path8472"
         sodipodi:cx="84"
         sodipodi:cy="48"
         sodipodi:rx="4"
         sodipodi:ry="4"
         d="M 88 48 A 4 4 0 1 1  80,48 A 4 4 0 1 1  88 48 z"
         transform="translate(4,4)" />
    </clipPath>
  </defs>
  <sodipodi:namedview
     id="base"
     pagecolor="#ffffff"
     bordercolor="#666666"
     borderopacity="1.0"
     inkscape:pageopacity="0.0"
     inkscape:pageshadow="2"
     inkscape:zoom="3.2077047"
     inkscape:cx="24.380952"
     inkscape:cy="20.994709"
     inkscape:current-layer="layer1"
     showgrid="true"
     inkscape:document-units="px"
     inkscape:grid-bbox="true"
     gridspacingx="1px"
     gridspacingy="1px"
     gridtolerance="10000"
     inkscape:grid-points="true"
     gridempspacing="2"
     inkscape:object-bbox="false"
     inkscape:object-points="false"
     inkscape:object-paths="false"
     inkscape:window-width="852"
     inkscape:window-height="609"
     inkscape:window-x="59"
     inkscape:window-y="17" />
  <metadata
     id="metadata2180">
    <rdf:RDF>
      <cc:Work
         rdf:about="">
        <dc:format>image/svg+xml</dc:format>
        <dc:type
           rdf:resource="http://purl.org/dc/dcmitype/StillImage" />
      </cc:Work>
    </rdf:RDF>
  </metadata>
  <g
     id="layer1"
     inkscape:label="Layer 1"
     inkscape:groupmode="layer">
    <path
       style="color:black;fill:black;fill-opacity:1;fill-rule:evenodd;stroke:none;stroke-width:10;stroke-linecap:butt;stroke-linejoin:miter;marker:none;marker-start:none;marker-mid:none;marker-end:none;stroke-miterlimit:4;stroke-dasharray:none;stroke-dashoffset:0;stroke-opacity:1;visibility:visible;display:block;font-size:6"
       d="M 12.219758,1.521875e-05 C 5.4409057,1.521875e-05 3.434375e-05,5.4620633 3.434375e-05,12.240917 L 3.434375e-05,51.780302 C 3.434375e-05,58.559156 5.4409071,64.000032 12.219758,64.000026 L 51.759143,64.000026 C 58.537997,64.000026 64.000045,58.559149 64.000045,51.780302 L 64.000045,12.240917 C 64.000045,5.4620646 58.537997,1.521875e-05 51.759143,1.521875e-05 L 12.219758,1.521875e-05 z M 14.803478,8.4712277 L 49.175423,8.4712277 C 52.69038,8.4712277 55.528832,10.901158 55.528832,13.913982 L 55.528832,50.107237 C 55.528832,53.120061 52.690386,55.528813 49.175423,55.528813 L 14.803478,55.528813 C 11.288519,55.52882 8.4712468,53.120061 8.4712468,50.107237 L 8.4712468,13.913982 C 8.4712468,10.901158 11.288518,8.4712277 14.803478,8.4712277 z "
       id="rect3738" />
    <path
       style="font-size:6px;font-style:normal;font-variant:normal;font-weight:bold;font-stretch:normal;text-align:center;line-height:100%;writing-mode:lr-tb;text-anchor:middle;fill:black;fill-opacity:1;stroke:none;stroke-width:1pt;stroke-linecap:butt;stroke-linejoin:miter;stroke-opacity:1;font-family:FreeMono"
       d="M 17.782002,23.388 C 17.97,23.388001 18.129999,23.366001 18.262002,23.322 C 18.397999,23.274001 18.493999,23.224001 18.550002,23.172 C 18.605999,23.116001 18.661999,23.066001 18.718002,23.022 C 18.777999,22.974001 18.833999,22.950001 18.886002,22.95 C 18.965999,22.950001 19.035999,22.980001 19.096002,23.04 C 19.155998,23.100001 19.185998,23.170001 19.186002,23.25 C 19.185998,23.422001 19.047999,23.588001 18.772002,23.748 C 18.499999,23.908 18.163999,23.988 17.764002,23.988 C 17.256,23.988 16.834001,23.840001 16.498002,23.544 C 16.166001,23.244001 16.000002,22.866002 16.000002,22.41 L 16.000002,22.014 C 16.000002,21.534003 16.156001,21.132003 16.468002,20.808 C 16.780001,20.484004 17.168,20.322004 17.632002,20.322 C 17.912,20.322004 18.195999,20.390004 18.484002,20.526 L 18.544002,20.55 C 18.611999,20.454004 18.695999,20.406004 18.796002,20.406 C 18.911999,20.406004 18.989999,20.440004 19.030002,20.508 C 19.073999,20.576004 19.095998,20.674004 19.096002,20.802 L 19.096002,21.306 C 19.095998,21.570003 18.995999,21.702003 18.796002,21.702 C 18.723999,21.702003 18.663999,21.682003 18.616002,21.642 C 18.571999,21.602003 18.543999,21.566003 18.532002,21.534 C 18.523999,21.498003 18.513999,21.448003 18.502002,21.384 C 18.477999,21.264003 18.403999,21.168003 18.280002,21.096 C 18.159999,21.020003 18.048,20.972003 17.944002,20.952 C 17.84,20.932003 17.744,20.922003 17.656002,20.922 C 17.352,20.922003 17.1,21.026003 16.900002,21.234 C 16.700001,21.438003 16.600001,21.698003 16.600002,22.014 L 16.600002,22.398 C 16.600001,22.698002 16.706001,22.938001 16.918002,23.118 C 17.134,23.298001 17.422,23.388001 17.782002,23.388 M 21.217658,21.204 C 21.641656,21.204003 22.001655,21.340003 22.297658,21.612 C 22.597655,21.884003 22.747655,22.214002 22.747658,22.602 C 22.747655,22.994001 22.597655,23.326001 22.297658,23.598 C 21.997655,23.866001 21.631656,24 21.199658,24 C 20.767657,24 20.401657,23.866001 20.101658,23.598 C 19.801658,23.326001 19.651658,22.994001 19.651658,22.602 C 19.651658,22.206002 19.801658,21.874003 20.101658,21.606 C 20.401657,21.338003 20.773657,21.204003 21.217658,21.204 M 21.211658,21.804 C 20.939656,21.804003 20.711657,21.880003 20.527658,22.032 C 20.343657,22.184002 20.251657,22.374002 20.251658,22.602 C 20.251657,22.826002 20.341657,23.016001 20.521658,23.172 C 20.705657,23.324001 20.931656,23.400001 21.199658,23.4 C 21.467656,23.400001 21.691656,23.324001 21.871658,23.172 C 22.055655,23.016001 22.147655,22.826002 22.147658,22.602 C 22.147655,22.378002 22.055655,22.190002 21.871658,22.038 C 21.691656,21.882003 21.471656,21.804003 21.211658,21.804 M 26.279314,23.304 C 26.543311,23.304001 26.675311,23.404001 26.675314,23.604 C 26.675311,23.804001 26.543311,23.904 26.279314,23.904 L 25.583314,23.904 L 25.583314,23.694 C 25.295312,23.89 24.993312,23.988 24.677314,23.988 C 24.229313,23.988 23.869313,23.854001 23.597314,23.586 C 23.329314,23.318001 23.195314,22.986001 23.195314,22.59 C 23.195314,22.194002 23.329314,21.864003 23.597314,21.6 C 23.869313,21.332003 24.231313,21.198003 24.683314,21.198 C 25.031312,21.198003 25.331312,21.298003 25.583314,21.498 L 25.583314,20.754 L 25.487314,20.754 C 25.359312,20.754004 25.261312,20.734004 25.193314,20.694 C 25.125312,20.650004 25.091312,20.570004 25.091314,20.454 C 25.091312,20.342004 25.125312,20.266004 25.193314,20.226 C 25.261312,20.182004 25.359312,20.160004 25.487314,20.16 L 26.183314,20.16 L 26.183314,23.304 L 26.279314,23.304 M 25.583314,22.602 C 25.583312,22.362002 25.501312,22.168002 25.337314,22.02 C 25.173312,21.872003 24.955312,21.798003 24.683314,21.798 C 24.415313,21.798003 24.199313,21.876003 24.035314,22.032 C 23.875313,22.184002 23.795313,22.370002 23.795314,22.59 C 23.795313,22.818002 23.877313,23.008001 24.041314,23.16 C 24.209313,23.312001 24.425313,23.388001 24.689314,23.388 C 24.953312,23.388001 25.167312,23.314001 25.331314,23.166 C 25.499312,23.014001 25.583312,22.826002 25.583314,22.602 M 29.894971,23.502 C 29.894967,23.630001 29.778967,23.736001 29.546971,23.82 C 29.314968,23.9 29.096968,23.95 28.892971,23.97 C 28.692968,23.99 28.520969,24 28.376971,24 C 27.912969,24 27.53297,23.870001 27.236971,23.61 C 26.94097,23.350001 26.79297,23.016001 26.792971,22.608 C 26.79297,22.212002 26.94097,21.880003 27.236971,21.612 C 27.53697,21.340003 27.904969,21.204003 28.340971,21.204 C 28.788968,21.204003 29.158968,21.340003 29.450971,21.612 C 29.746967,21.884003 29.894967,22.226002 29.894971,22.638 L 29.894971,22.872 L 27.446971,22.872 C 27.58297,23.224001 27.910969,23.400001 28.430971,23.4 C 28.642968,23.400001 28.878968,23.368001 29.138971,23.304 C 29.398968,23.236001 29.554968,23.202001 29.606971,23.202 C 29.686967,23.202001 29.754967,23.232001 29.810971,23.292 C 29.866967,23.348001 29.894967,23.418001 29.894971,23.502 M 27.464971,22.344 L 29.228971,22.344 C 29.180968,22.180002 29.076968,22.050002 28.916971,21.954 C 28.756968,21.854003 28.566969,21.804003 28.346971,21.804 C 28.126969,21.804003 27.934969,21.854003 27.770971,21.954 C 27.61097,22.054002 27.50897,22.184002 27.464971,22.344 M 31.416515,21.282 C 31.680514,21.282003 31.812514,21.380003 31.812515,21.576 C 31.812514,21.692003 31.760514,21.784003 31.656515,21.852 L 32.022515,22.146 L 32.388515,21.846 C 32.284513,21.774003 32.232513,21.688003 32.232515,21.588 C 32.232513,21.384003 32.364513,21.282003 32.628515,21.282 L 33.174515,21.282 C 33.442512,21.282003 33.576512,21.382003 33.576515,21.582 C 33.576512,21.762003 33.470512,21.862003 33.258515,21.882 L 32.466515,22.542 L 33.378515,23.304 C 33.594512,23.316001 33.702512,23.416001 33.702515,23.604 C 33.702512,23.804001 33.570512,23.904 33.306515,23.904 L 32.634515,23.904 C 32.366513,23.904 32.232513,23.802001 32.232515,23.598 C 32.232513,23.446001 32.312513,23.348001 32.472515,23.304 L 32.022515,22.938 L 31.584515,23.304 C 31.736514,23.368001 31.812514,23.466001 31.812515,23.598 C 31.812514,23.802001 31.680514,23.904 31.416515,23.904 L 30.750515,23.904 C 30.486515,23.904 30.354515,23.804001 30.354515,23.604 C 30.354515,23.416001 30.462515,23.316001 30.678515,23.304 L 31.548515,22.536 L 30.780515,21.882 C 30.572515,21.862003 30.468515,21.762003 30.468515,21.582 C 30.468515,21.382003 30.600515,21.282003 30.864515,21.282 L 31.416515,21.282 M 40.549826,22.35 C 40.665826,22.350002 40.743826,22.384002 40.783826,22.452 C 40.827826,22.520002 40.849826,22.620002 40.849826,22.752 L 40.849826,23.904 L 38.017828,23.904 C 37.753828,23.904 37.621828,23.804001 37.621828,23.604 C 37.621828,23.488001 37.655828,23.410001 37.723828,23.37 C 37.791828,23.326001 37.889827,23.304001 38.017828,23.304 L 38.359828,23.304 L 38.359828,21.006 L 38.017828,21.006 C 37.753828,21.006003 37.621828,20.906003 37.621828,20.706 C 37.621828,20.590004 37.655828,20.512004 37.723828,20.472 C 37.791828,20.428004 37.889827,20.406004 38.017828,20.406 L 39.301826,20.406 C 39.565826,20.406004 39.697826,20.506004 39.697826,20.706 C 39.697826,20.906003 39.565826,21.006003 39.301826,21.006 L 38.959828,21.006 L 38.959828,23.304 L 40.249826,23.304 L 40.249826,22.752 C 40.249826,22.484002 40.349826,22.350002 40.549826,22.35 M 43.853486,23.304 C 44.117486,23.304001 44.249476,23.404001 44.249486,23.604 C 44.249476,23.804001 44.117486,23.904 43.853486,23.904 L 41.789486,23.904 C 41.525486,23.904 41.393486,23.804001 41.393486,23.604 C 41.393486,23.488001 41.427486,23.410001 41.495486,23.37 C 41.563486,23.326001 41.661486,23.304001 41.789486,23.304 L 42.521486,23.304 L 42.521486,21.882 L 42.053486,21.882 C 41.785486,21.882003 41.651486,21.782003 41.651486,21.582 C 41.651486,21.462003 41.685486,21.382003 41.753486,21.342 C 41.825486,21.302003 41.925486,21.282003 42.053486,21.282 L 43.121486,21.282 L 43.121486,23.304 L 43.853486,23.304 M 43.037486,20.166 L 43.037486,20.796 L 42.329486,20.796 L 42.329486,20.166 L 43.037486,20.166 M 44.571136,20.46 C 44.571136,20.260004 44.703136,20.160004 44.967136,20.16 L 45.663136,20.16 L 45.663136,21.498 C 45.915136,21.298003 46.215136,21.198003 46.563136,21.198 C 47.015136,21.198003 47.375136,21.332003 47.643136,21.6 C 47.911136,21.864003 48.045136,22.196002 48.045136,22.596 C 48.045136,22.996001 47.909136,23.328001 47.637136,23.592 C 47.365136,23.856001 47.009136,23.988 46.569136,23.988 C 46.249136,23.988 45.947136,23.89 45.663136,23.694 L 45.663136,23.904 L 44.967136,23.904 C 44.703136,23.904 44.571136,23.804001 44.571136,23.604 C 44.571136,23.488001 44.605136,23.410001 44.673136,23.37 C 44.741136,23.326001 44.839136,23.304001 44.967136,23.304 L 45.063136,23.304 L 45.063136,20.76 L 44.967136,20.76 C 44.839136,20.760004 44.741136,20.740004 44.673136,20.7 C 44.605136,20.656004 44.571136,20.576004 44.571136,20.46 M 46.557136,21.798 C 46.285136,21.798003 46.067136,21.874003 45.903136,22.026 C 45.743136,22.174002 45.663136,22.360002 45.663136,22.584 C 45.663136,22.820002 45.745136,23.014001 45.909136,23.166 C 46.077136,23.314001 46.293136,23.388001 46.557136,23.388 C 46.817136,23.388001 47.029136,23.314001 47.193136,23.166 C 47.361136,23.014001 47.445136,22.822002 47.445136,22.59 C 47.445136,22.366002 47.363136,22.178002 47.199136,22.026 C 47.035136,21.874003 46.821136,21.798003 46.557136,21.798 M 50.886796,21.21 C 51.054796,21.210003 51.222796,21.262003 51.390796,21.366 C 51.558796,21.470003 51.642796,21.588003 51.642796,21.72 C 51.642796,21.804003 51.612796,21.876003 51.552796,21.936 C 51.492796,21.996002 51.422796,22.026002 51.342796,22.026 C 51.274796,22.026002 51.196796,21.990002 51.108796,21.918 C 51.020796,21.846003 50.942796,21.810003 50.874796,21.81 C 50.778796,21.810003 50.660796,21.854003 50.520796,21.942 C 50.384796,22.026002 50.172796,22.186002 49.884796,22.422 L 49.884796,23.304 L 50.718796,23.304 C 50.986796,23.304001 51.120796,23.404001 51.120796,23.604 C 51.120796,23.804001 50.986796,23.904 50.718796,23.904 L 48.936796,23.904 C 48.672796,23.904 48.540796,23.804001 48.540796,23.604 C 48.540796,23.488001 48.574796,23.410001 48.642796,23.37 C 48.710796,23.326001 48.808796,23.304001 48.936796,23.304 L 49.284796,23.304 L 49.284796,21.882 L 49.074796,21.882 C 48.810796,21.882003 48.678796,21.782003 48.678796,21.582 C 48.678796,21.382003 48.810796,21.282003 49.074796,21.282 L 49.884796,21.282 L 49.884796,21.672 C 50.124796,21.492003 50.314796,21.370003 50.454796,21.306 C 50.594796,21.242003 50.738796,21.210003 50.886796,21.21 M 55.114456,23.502 C 55.114446,23.630001 54.998446,23.736001 54.766456,23.82 C 54.534446,23.9 54.316446,23.95 54.112456,23.97 C 53.912446,23.99 53.740456,24 53.596456,24 C 53.132456,24 52.752456,23.870001 52.456456,23.61 C 52.160456,23.350001 52.012456,23.016001 52.012456,22.608 C 52.012456,22.212002 52.160456,21.880003 52.456456,21.612 C 52.756456,21.340003 53.124456,21.204003 53.560456,21.204 C 54.008446,21.204003 54.378446,21.340003 54.670456,21.612 C 54.966446,21.884003 55.114446,22.226002 55.114456,22.638 L 55.114456,22.872 L 52.666456,22.872 C 52.802456,23.224001 53.130456,23.400001 53.650456,23.4 C 53.862446,23.400001 54.098446,23.368001 54.358456,23.304 C 54.618446,23.236001 54.774446,23.202001 54.826456,23.202 C 54.906446,23.202001 54.974446,23.232001 55.030456,23.292 C 55.086446,23.348001 55.114446,23.418001 55.114456,23.502 M 52.684456,22.344 L 54.448456,22.344 C 54.400446,22.180002 54.296446,22.050002 54.136456,21.954 C 53.976446,21.854003 53.786446,21.804003 53.566456,21.804 C 53.346456,21.804003 53.154456,21.854003 52.990456,21.954 C 52.830456,22.054002 52.728456,22.184002 52.684456,22.344"
       id="text8464" />
    <path
       sodipodi:type="arc"
       style="opacity:1;color:black;fill:white;fill-opacity:1;fill-rule:evenodd;stroke:none;stroke-width:4;stroke-linecap:round;stroke-linejoin:miter;marker:none;marker-start:none;marker-mid:none;marker-end:none;stroke-miterlimit:4;stroke-dasharray:none;stroke-dashoffset:0;stroke-opacity:1;visibility:visible;display:block"
       id="path8460"
       sodipodi:cx="24"
       sodipodi:cy="24"
       sodipodi:rx="10"
       sodipodi:ry="10"
       d="M 34 24 A 10 10 0 1 1  14,24 A 10 10 0 1 1  34 24 z"
       transform="matrix(1.178858,0,0,1.178857,-4.081172,-4.503998)" />
    <g
       transform="matrix(-0.717321,0.717321,0.717321,0.717321,-15.42816,35.75092)"
       id="g8440"
       style="font-size:5.91456362">
      <path
         sodipodi:type="arc"
         style="opacity:1;color:black;fill:white;fill-opacity:1;fill-rule:evenodd;stroke:black;stroke-width:6;stroke-linecap:round;stroke-linejoin:miter;marker:none;marker-start:none;marker-mid:none;marker-end:none;stroke-miterlimit:4;stroke-dasharray:none;stroke-dashoffset:0;stroke-opacity:1;visibility:visible;display:block;font-size:5.91456362"
         id="path8442"
         sodipodi:cx="-36"
         sodipodi:cy="20"
         sodipodi:rx="12"
         sodipodi:ry="12"
         d="M -24 20 A 12 12 0 1 1  -48,20 A 12 12 0 1 1  -24 20 z" />
      <path
         style="fill:none;fill-opacity:0.75;fill-rule:evenodd;stroke:black;stroke-width:8.19999981;stroke-linecap:butt;stroke-linejoin:miter;stroke-miterlimit:4;stroke-dasharray:none;stroke-opacity:1;font-size:5.91456362"
         d="M -36,38 L -36,56"
         id="path8444"
         sodipodi:nodetypes="cc" />
      <path
         id="path8446"
         d="M -36,32 L -36,58"
         style="fill:none;fill-opacity:0.75;fill-rule:evenodd;stroke:black;stroke-width:4;stroke-linecap:butt;stroke-linejoin:miter;stroke-miterlimit:4;stroke-dasharray:none;stroke-opacity:1;font-size:5.91456362"
         sodipodi:nodetypes="cc" />
    </g>
    <path
       style="font-size:6px;font-style:normal;font-variant:normal;font-weight:bold;font-stretch:normal;text-align:center;line-height:100%;writing-mode:lr-tb;text-anchor:middle;fill:black;fill-opacity:1;stroke:none;stroke-width:1pt;stroke-linecap:butt;stroke-linejoin:miter;stroke-opacity:1;font-family:FreeMono"
       d="M 78.667546,53.308001 C 78.855544,53.308002 79.015543,53.286002 79.147546,53.242001 C 79.283543,53.194002 79.379543,53.144002 79.435546,53.092001 C 79.491543,53.036002 79.547543,52.986002 79.603546,52.942001 C 79.663543,52.894002 79.719543,52.870002 79.771546,52.870001 C 79.851543,52.870002 79.921543,52.900002 79.981546,52.960001 C 80.041542,53.020002 80.071542,53.090002 80.071546,53.170001 C 80.071542,53.342002 79.933543,53.508002 79.657546,53.668001 C 79.385543,53.828001 79.049543,53.908001 78.649546,53.908001 C 78.141544,53.908001 77.719545,53.760001 77.383546,53.464001 C 77.051545,53.164002 76.885546,52.786002 76.885546,52.330001 L 76.885546,51.934001 C 76.885546,51.454004 77.041545,51.052004 77.353546,50.728001 C 77.665545,50.404005 78.053544,50.242005 78.517546,50.242001 C 78.797544,50.242005 79.081543,50.310005 79.369546,50.446001 L 79.429546,50.470001 C 79.497543,50.374005 79.581543,50.326005 79.681546,50.326001 C 79.797543,50.326005 79.875543,50.360005 79.915546,50.428001 C 79.959543,50.496005 79.981542,50.594005 79.981546,50.722001 L 79.981546,51.226001 C 79.981542,51.490004 79.881543,51.622004 79.681546,51.622001 C 79.609543,51.622004 79.549543,51.602004 79.501546,51.562001 C 79.457543,51.522004 79.429543,51.486004 79.417546,51.454001 C 79.409543,51.418004 79.399543,51.368004 79.387546,51.304001 C 79.363543,51.184004 79.289543,51.088004 79.165546,51.016001 C 79.045543,50.940004 78.933544,50.892004 78.829546,50.872001 C 78.725544,50.852004 78.629544,50.842004 78.541546,50.842001 C 78.237544,50.842004 77.985544,50.946004 77.785546,51.154001 C 77.585545,51.358004 77.485545,51.618004 77.485546,51.934001 L 77.485546,52.318001 C 77.485545,52.618003 77.591545,52.858002 77.803546,53.038001 C 78.019544,53.218002 78.307544,53.308002 78.667546,53.308001 M 82.103202,51.124001 C 82.5272,51.124004 82.887199,51.260004 83.183202,51.532001 C 83.483199,51.804003 83.633199,52.134003 83.633202,52.522001 C 83.633199,52.914002 83.483199,53.246002 83.183202,53.518001 C 82.883199,53.786001 82.5172,53.920001 82.085202,53.920001 C 81.653201,53.920001 81.287201,53.786001 80.987202,53.518001 C 80.687202,53.246002 80.537202,52.914002 80.537202,52.522001 C 80.537202,52.126003 80.687202,51.794003 80.987202,51.526001 C 81.287201,51.258004 81.659201,51.124004 82.103202,51.124001 M 82.097202,51.724001 C 81.8252,51.724003 81.597201,51.800003 81.413202,51.952001 C 81.229201,52.104003 81.137201,52.294003 81.137202,52.522001 C 81.137201,52.746002 81.227201,52.936002 81.407202,53.092001 C 81.591201,53.244002 81.8172,53.320002 82.085202,53.320001 C 82.3532,53.320002 82.5772,53.244002 82.757202,53.092001 C 82.941199,52.936002 83.033199,52.746002 83.033202,52.522001 C 83.033199,52.298003 82.941199,52.110003 82.757202,51.958001 C 82.5772,51.802003 82.3572,51.724003 82.097202,51.724001 M 87.164858,53.224001 C 87.428855,53.224002 87.560855,53.324002 87.560858,53.524001 C 87.560855,53.724001 87.428855,53.824001 87.164858,53.824001 L 86.468858,53.824001 L 86.468858,53.614001 C 86.180856,53.810001 85.878856,53.908001 85.562858,53.908001 C 85.114857,53.908001 84.754857,53.774001 84.482858,53.506001 C 84.214858,53.238002 84.080858,52.906002 84.080858,52.510001 C 84.080858,52.114003 84.214858,51.784003 84.482858,51.520001 C 84.754857,51.252004 85.116857,51.118004 85.568858,51.118001 C 85.916856,51.118004 86.216856,51.218004 86.468858,51.418001 L 86.468858,50.674001 L 86.372858,50.674001 C 86.244856,50.674004 86.146856,50.654004 86.078858,50.614001 C 86.010856,50.570005 85.976856,50.490005 85.976858,50.374001 C 85.976856,50.262005 86.010856,50.186005 86.078858,50.146001 C 86.146856,50.102005 86.244856,50.080005 86.372858,50.080001 L 87.068858,50.080001 L 87.068858,53.224001 L 87.164858,53.224001 M 86.468858,52.522001 C 86.468856,52.282003 86.386856,52.088003 86.222858,51.940001 C 86.058856,51.792003 85.840856,51.718003 85.568858,51.718001 C 85.300857,51.718003 85.084857,51.796003 84.920858,51.952001 C 84.760857,52.104003 84.680857,52.290003 84.680858,52.510001 C 84.680857,52.738002 84.762857,52.928002 84.926858,53.080001 C 85.094857,53.232002 85.310857,53.308002 85.574858,53.308001 C 85.838856,53.308002 86.052856,53.234002 86.216858,53.086001 C 86.384856,52.934002 86.468856,52.746002 86.468858,52.522001 M 90.780515,53.422001 C 90.780511,53.550002 90.664511,53.656001 90.432515,53.740001 C 90.200512,53.820001 89.982512,53.870001 89.778515,53.890001 C 89.578512,53.910001 89.406513,53.920001 89.262515,53.920001 C 88.798513,53.920001 88.418514,53.790001 88.122515,53.530001 C 87.826514,53.270002 87.678514,52.936002 87.678515,52.528001 C 87.678514,52.132003 87.826514,51.800003 88.122515,51.532001 C 88.422514,51.260004 88.790513,51.124004 89.226515,51.124001 C 89.674512,51.124004 90.044512,51.260004 90.336515,51.532001 C 90.632511,51.804003 90.780511,52.146003 90.780515,52.558001 L 90.780515,52.792001 L 88.332515,52.792001 C 88.468514,53.144002 88.796513,53.320002 89.316515,53.320001 C 89.528512,53.320002 89.764512,53.288002 90.024515,53.224001 C 90.284512,53.156002 90.440512,53.122002 90.492515,53.122001 C 90.572511,53.122002 90.640511,53.152002 90.696515,53.212001 C 90.752511,53.268002 90.780511,53.338002 90.780515,53.422001 M 88.350515,52.264001 L 90.114515,52.264001 C 90.066512,52.100003 89.962512,51.970003 89.802515,51.874001 C 89.642512,51.774003 89.452513,51.724003 89.232515,51.724001 C 89.012513,51.724003 88.820513,51.774003 88.656515,51.874001 C 88.496514,51.974003 88.394514,52.104003 88.350515,52.264001 M 92.302059,51.202001 C 92.566058,51.202004 92.698058,51.300004 92.698059,51.496001 C 92.698058,51.612004 92.646058,51.704003 92.542059,51.772001 L 92.908059,52.066001 L 93.274059,51.766001 C 93.170057,51.694003 93.118057,51.608004 93.118059,51.508001 C 93.118057,51.304004 93.250057,51.202004 93.514059,51.202001 L 94.060059,51.202001 C 94.328056,51.202004 94.462056,51.302004 94.462059,51.502001 C 94.462056,51.682003 94.356056,51.782003 94.144059,51.802001 L 93.352059,52.462001 L 94.264059,53.224001 C 94.480056,53.236002 94.588056,53.336002 94.588059,53.524001 C 94.588056,53.724001 94.456056,53.824001 94.192059,53.824001 L 93.520059,53.824001 C 93.252057,53.824001 93.118057,53.722001 93.118059,53.518001 C 93.118057,53.366002 93.198057,53.268002 93.358059,53.224001 L 92.908059,52.858001 L 92.470059,53.224001 C 92.622058,53.288002 92.698058,53.386002 92.698059,53.518001 C 92.698058,53.722001 92.566058,53.824001 92.302059,53.824001 L 91.636059,53.824001 C 91.372059,53.824001 91.240059,53.724001 91.240059,53.524001 C 91.240059,53.336002 91.348059,53.236002 91.564059,53.224001 L 92.434059,52.456001 L 91.666059,51.802001 C 91.458059,51.782003 91.354059,51.682003 91.354059,51.502001 C 91.354059,51.302004 91.486059,51.202004 91.750059,51.202001 L 92.302059,51.202001 M 101.43537,52.270001 C 101.55137,52.270003 101.62937,52.304003 101.66937,52.372001 C 101.71337,52.440003 101.73537,52.540003 101.73537,52.672001 L 101.73537,53.824001 L 98.903372,53.824001 C 98.639372,53.824001 98.507372,53.724001 98.507372,53.524001 C 98.507372,53.408002 98.541372,53.330002 98.609372,53.290001 C 98.677372,53.246002 98.775371,53.224002 98.903372,53.224001 L 99.245372,53.224001 L 99.245372,50.926001 L 98.903372,50.926001 C 98.639372,50.926004 98.507372,50.826004 98.507372,50.626001 C 98.507372,50.510005 98.541372,50.432005 98.609372,50.392001 C 98.677372,50.348005 98.775371,50.326005 98.903372,50.326001 L 100.18737,50.326001 C 100.45137,50.326005 100.58337,50.426005 100.58337,50.626001 C 100.58337,50.826004 100.45137,50.926004 100.18737,50.926001 L 99.845372,50.926001 L 99.845372,53.224001 L 101.13537,53.224001 L 101.13537,52.672001 C 101.13537,52.404003 101.23537,52.270003 101.43537,52.270001 M 104.73903,53.224001 C 105.00303,53.224002 105.13502,53.324002 105.13503,53.524001 C 105.13502,53.724001 105.00303,53.824001 104.73903,53.824001 L 102.67503,53.824001 C 102.41103,53.824001 102.27903,53.724001 102.27903,53.524001 C 102.27903,53.408002 102.31303,53.330002 102.38103,53.290001 C 102.44903,53.246002 102.54703,53.224002 102.67503,53.224001 L 103.40703,53.224001 L 103.40703,51.802001 L 102.93903,51.802001 C 102.67103,51.802003 102.53703,51.702003 102.53703,51.502001 C 102.53703,51.382004 102.57103,51.302004 102.63903,51.262001 C 102.71103,51.222004 102.81103,51.202004 102.93903,51.202001 L 104.00703,51.202001 L 104.00703,53.224001 L 104.73903,53.224001 M 103.92303,50.086001 L 103.92303,50.716001 L 103.21503,50.716001 L 103.21503,50.086001 L 103.92303,50.086001 M 105.45668,50.380001 C 105.45668,50.180005 105.58868,50.080005 105.85268,50.080001 L 106.54868,50.080001 L 106.54868,51.418001 C 106.80068,51.218004 107.10068,51.118004 107.44868,51.118001 C 107.90068,51.118004 108.26068,51.252004 108.52868,51.520001 C 108.79668,51.784003 108.93068,52.116003 108.93068,52.516001 C 108.93068,52.916002 108.79468,53.248002 108.52268,53.512001 C 108.25068,53.776001 107.89468,53.908001 107.45468,53.908001 C 107.13468,53.908001 106.83268,53.810001 106.54868,53.614001 L 106.54868,53.824001 L 105.85268,53.824001 C 105.58868,53.824001 105.45668,53.724001 105.45668,53.524001 C 105.45668,53.408002 105.49068,53.330002 105.55868,53.290001 C 105.62668,53.246002 105.72468,53.224002 105.85268,53.224001 L 105.94868,53.224001 L 105.94868,50.680001 L 105.85268,50.680001 C 105.72468,50.680004 105.62668,50.660004 105.55868,50.620001 C 105.49068,50.576005 105.45668,50.496005 105.45668,50.380001 M 107.44268,51.718001 C 107.17068,51.718003 106.95268,51.794003 106.78868,51.946001 C 106.62868,52.094003 106.54868,52.280003 106.54868,52.504001 C 106.54868,52.740002 106.63068,52.934002 106.79468,53.086001 C 106.96268,53.234002 107.17868,53.308002 107.44268,53.308001 C 107.70268,53.308002 107.91468,53.234002 108.07868,53.086001 C 108.24668,52.934002 108.33068,52.742002 108.33068,52.510001 C 108.33068,52.286003 108.24868,52.098003 108.08468,51.946001 C 107.92068,51.794003 107.70668,51.718003 107.44268,51.718001 M 111.77234,51.130001 C 111.94034,51.130004 112.10834,51.182004 112.27634,51.286001 C 112.44434,51.390004 112.52834,51.508004 112.52834,51.640001 C 112.52834,51.724003 112.49834,51.796003 112.43834,51.856001 C 112.37834,51.916003 112.30834,51.946003 112.22834,51.946001 C 112.16034,51.946003 112.08234,51.910003 111.99434,51.838001 C 111.90634,51.766003 111.82834,51.730003 111.76034,51.730001 C 111.66434,51.730003 111.54634,51.774003 111.40634,51.862001 C 111.27034,51.946003 111.05834,52.106003 110.77034,52.342001 L 110.77034,53.224001 L 111.60434,53.224001 C 111.87234,53.224002 112.00634,53.324002 112.00634,53.524001 C 112.00634,53.724001 111.87234,53.824001 111.60434,53.824001 L 109.82234,53.824001 C 109.55834,53.824001 109.42634,53.724001 109.42634,53.524001 C 109.42634,53.408002 109.46034,53.330002 109.52834,53.290001 C 109.59634,53.246002 109.69434,53.224002 109.82234,53.224001 L 110.17034,53.224001 L 110.17034,51.802001 L 109.96034,51.802001 C 109.69634,51.802003 109.56434,51.702003 109.56434,51.502001 C 109.56434,51.302004 109.69634,51.202004 109.96034,51.202001 L 110.77034,51.202001 L 110.77034,51.592001 C 111.01034,51.412004 111.20034,51.290004 111.34034,51.226001 C 111.48034,51.162004 111.62434,51.130004 111.77234,51.130001 M 116,53.422001 C 115.99999,53.550002 115.88399,53.656001 115.652,53.740001 C 115.41999,53.820001 115.20199,53.870001 114.998,53.890001 C 114.79799,53.910001 114.626,53.920001 114.482,53.920001 C 114.018,53.920001 113.638,53.790001 113.342,53.530001 C 113.046,53.270002 112.898,52.936002 112.898,52.528001 C 112.898,52.132003 113.046,51.800003 113.342,51.532001 C 113.642,51.260004 114.01,51.124004 114.446,51.124001 C 114.89399,51.124004 115.26399,51.260004 115.556,51.532001 C 115.85199,51.804003 115.99999,52.146003 116,52.558001 L 116,52.792001 L 113.552,52.792001 C 113.688,53.144002 114.016,53.320002 114.536,53.320001 C 114.74799,53.320002 114.98399,53.288002 115.244,53.224001 C 115.50399,53.156002 115.65999,53.122002 115.712,53.122001 C 115.79199,53.122002 115.85999,53.152002 115.916,53.212001 C 115.97199,53.268002 115.99999,53.338002 116,53.422001 M 113.57,52.264001 L 115.334,52.264001 C 115.28599,52.100003 115.18199,51.970003 115.022,51.874001 C 114.86199,51.774003 114.67199,51.724003 114.452,51.724001 C 114.232,51.724003 114.04,51.774003 113.876,51.874001 C 113.716,51.974003 113.614,52.104003 113.57,52.264001"
       id="text8468"
       clip-path="url(#clipPath8475)"
       transform="matrix(2,0,0,3.625,-152,-165.54)" />
  </g>
</svg>
